<svg class="absolute top-0 left-1/2 -translate-x-1/2 -z-10 w-[200vw] h-[100vh]" viewBox="0 0 2206 1325" fill="none" xmlns="http://www.w3.org/2000/svg">
  <path d="M46.7243 0L46.7243 1323.23M230.558 0L230.558 1323.23M414.391 0L414.391 1323.23M2206 0.765862L0 0.765759M598.224 0L598.224 1323.23M2206 147.792L0 147.792M782.058 0L782.058 1323.23M2206 294.818L0 294.818M965.891 0V1323.23M2206 441.844L0 441.844M1149.72 0V1323.23M2206 588.87L0 588.87M1333.56 0V1323.23M2206 735.896L0 735.896M1517.39 0V1323.23M2206 882.922L0 882.922M1976.97 0V1323.23M2206 1250.49L0 1250.49M1701.22 0V1323.23M2206 1029.95L0 1029.95M2160.81 0V1323.23M138.641 0L138.641 1323.23M322.474 0L322.474 1323.23M506.308 0L506.308 1323.23M2206 74.2789L0 74.2788M690.141 0L690.141 1323.23M2206 221.305L0 221.305M873.974 0V1323.23M2206 368.331L0 368.331M1057.81 0V1323.23M2206 515.357L0 515.357M1241.64 0V1323.23M2206 662.383L0 662.383M1425.47 0V1323.23M2206 809.409L0 809.409M1885.06 0V1323.23M2206 1176.97L0 1176.97M1609.31 0V1323.23M2206 956.435L0 956.435M2068.89 0V1323.23M2206 1324L0 1324M1793.14 0V1323.23M2206 1103.46L0 1103.46" stroke="rgba(255,255,255,0.1)" />
</svg>
